<svg width="54" height="54" fill="none" xmlns="http://www.w3.org/2000/svg"><path d="M42 0v48.62L38.019 54H12L42 0z" fill="#fff"/><path d="M27 19c-4.411 0-8 3.589-8 8s3.589 8 8 8 8-3.589 8-8-3.589-8-8-8zm0 14c-3.309 0-6-2.691-6-6s2.691-6 6-6 6 2.691 6 6-2.691 6-6 6z" fill="#212121"/><path d="M29 24c-.772 0-1.468.3-2 .779V22a3 3 0 00-3 3c0 .772.3 1.468.779 2H22a3 3 0 003 3c.772 0 1.468-.3 2-.779V32a3 3 0 003-3c0-.772-.3-1.468-.779-2H32a3 3 0 00-3-3zm-2 4a1 1 0 110-2 1 1 0 010 2z" fill="#212121"/><path d="M11 54V4.295L13.772 0H41L11 54z" fill="url(#paint0_linear)"/><path d="M27 37c-4.411 0-8 3.589-8 8s3.589 8 8 8 8-3.589 8-8-3.589-8-8-8zm0 14c-3.309 0-6-2.691-6-6s2.691-6 6-6 6 2.691 6 6-2.691 6-6 6z" fill="#212121"/><path d="M29 42c-.772 0-1.468.3-2 .779V40a3 3 0 00-3 3c0 .772.3 1.468.779 2H22a3 3 0 003 3c.772 0 1.468-.3 2-.779V50a3 3 0 003-3c0-.772-.3-1.468-.779-2H32a3 3 0 00-3-3zm-2 4a1 1 0 110-2 1 1 0 010 2z" fill="#212121"/><defs><linearGradient id="paint0_linear" x1="9.75" y1="52.008" x2="41.598" y2=".964" gradientUnits="userSpaceOnUse"><stop stop-color="#FFD600"/><stop offset="1" stop-color="#FFE81E"/></linearGradient></defs></svg>