<svg width="31" height="31" fill="none" xmlns="http://www.w3.org/2000/svg"><path d="M15.5 0C6.94 0 0 6.94 0 15.5 0 24.06 6.94 31 15.5 31 24.06 31 31 24.06 31 15.5 31 6.94 24.06 0 15.5 0zm7.077 12.085c.007.153.01.306.01.46 0 4.701-3.578 10.122-10.122 10.123a10.07 10.07 0 01-5.453-1.599 7.139 7.139 0 005.267-1.474 3.562 3.562 0 01-3.324-2.47 3.543 3.543 0 001.607-.061 3.559 3.559 0 01-2.854-3.488v-.045c.48.266 1.028.427 1.612.445a3.554 3.554 0 01-1.583-2.962c0-.651.176-1.262.481-1.788a10.1 10.1 0 007.334 3.717A3.558 3.558 0 0121.615 9.7a7.135 7.135 0 002.258-.864 3.572 3.572 0 01-1.564 1.968 7.094 7.094 0 002.043-.56 7.23 7.23 0 01-1.775 1.842z" fill="#FFD600"/></svg>