<svg width="11" height="12" fill="none" xmlns="http://www.w3.org/2000/svg"><path d="M4.93 5.78c.794 0 1.481-.284 2.043-.846s.847-1.25.847-2.044-.285-1.48-.847-2.043A2.797 2.797 0 004.929 0c-.794 0-1.481.285-2.043.847a2.797 2.797 0 00-.847 2.043c0 .794.285 1.482.847 2.044s1.25.846 2.043.846zm5.057 3.447a7.14 7.14 0 00-.097-.758 5.973 5.973 0 00-.186-.762 3.765 3.765 0 00-.314-.711 2.683 2.683 0 00-.472-.616 2.083 2.083 0 00-.68-.427 2.346 2.346 0 00-.866-.157c-.122 0-.24.05-.47.2a64.2 64.2 0 01-.489.315c-.157.1-.37.194-.633.28a2.515 2.515 0 01-.774.124c-.258 0-.518-.042-.775-.125a2.797 2.797 0 01-.633-.279 67.175 67.175 0 01-.49-.315c-.228-.15-.347-.2-.47-.2-.311 0-.603.053-.866.157a2.082 2.082 0 00-.679.427c-.178.17-.337.378-.472.616-.13.23-.236.468-.313.71a6.084 6.084 0 00-.187.763 7.113 7.113 0 00-.097.759c-.016.23-.024.468-.024.708 0 .627.2 1.134.592 1.508.388.369.9.556 1.525.556h5.778c.624 0 1.137-.187 1.525-.556.393-.374.592-.881.592-1.508 0-.242-.009-.48-.025-.709z" fill="#FFD600"/></svg>