<svg width="16" height="16" fill="none" xmlns="http://www.w3.org/2000/svg"><g clip-path="url(#clip0)" fill="#212121"><path d="M7.887 7.707a3.73 3.73 0 002.725-1.129 3.728 3.728 0 001.129-2.725 3.73 3.73 0 00-1.13-2.724A3.73 3.73 0 007.888 0a3.73 3.73 0 00-2.726 1.129 3.729 3.729 0 00-1.129 2.724c0 1.06.38 1.976 1.13 2.725a3.73 3.73 0 002.724 1.13zm6.742 4.596a9.522 9.522 0 00-.13-1.01 7.975 7.975 0 00-.248-1.017 5.023 5.023 0 00-.418-.948 3.576 3.576 0 00-.63-.822 2.778 2.778 0 00-.905-.568c-.351-.14-.74-.21-1.156-.21-.163 0-.321.068-.626.266a83.46 83.46 0 01-.653.42c-.21.134-.493.26-.844.373-.342.11-.69.167-1.032.167a3.35 3.35 0 01-1.033-.167 3.73 3.73 0 01-.844-.372 89.76 89.76 0 01-.653-.42c-.305-.2-.463-.266-.626-.266-.416 0-.805.07-1.155.209-.352.14-.657.33-.906.569a3.58 3.58 0 00-.63.82 5.031 5.031 0 00-.417.949 7.95 7.95 0 00-.249 1.016 9.487 9.487 0 00-.13 1.011c-.02.307-.032.624-.032.945 0 .836.266 1.512.79 2.01.517.492 1.2.742 2.033.742h7.704c.832 0 1.516-.25 2.033-.742.524-.498.79-1.174.79-2.01 0-.322-.012-.64-.033-.945z"/></g><defs><clipPath id="clip0"><path fill="#fff" d="M0 0h16v16H0z"/></clipPath></defs></svg>